<svg width="19" height="16" viewBox="0 0 19 16" fill="none" xmlns="http://www.w3.org/2000/svg">
<path d="M9.5 0.5C4.47727 0.5 0.409088 3.94339 0.409088 8.19042C0.409088 11.5889 3.01363 14.4709 6.625 15.4867C7.07954 15.5591 7.24621 15.3214 7.24621 15.1169C7.24621 14.9343 7.23863 14.4504 7.23485 13.8096C4.70606 14.2735 4.17272 12.7778 4.17272 12.7778C3.75909 11.8902 3.16136 11.653 3.16136 11.653C2.33788 11.1762 3.225 11.1858 3.225 11.1858C4.13788 11.2397 4.61742 11.978 4.61742 11.978C5.42803 13.154 6.74545 12.8143 7.26515 12.6175C7.34697 12.1202 7.58106 11.7812 7.84091 11.5889C5.82197 11.3967 3.7 10.7353 3.7 7.7886C3.7 6.94906 4.05227 6.26333 4.6356 5.725C4.53333 5.53082 4.22651 4.74896 4.71515 3.6896C4.71515 3.6896 5.47651 3.48324 7.21515 4.47787C7.94242 4.30676 8.71515 4.22216 9.48788 4.21832C10.2606 4.22216 11.0333 4.30676 11.7606 4.47787C13.4879 3.48324 14.2492 3.6896 14.2492 3.6896C14.7379 4.74896 14.4311 5.53082 14.3401 5.725C14.9197 6.26333 15.272 6.94906 15.272 7.7886C15.272 10.743 13.147 11.3935 11.1242 11.5825C11.4424 11.8133 11.7379 12.2849 11.7379 13.0053C11.7379 14.0345 11.7265 14.8612 11.7265 15.1112C11.7265 15.313 11.8856 15.5534 12.3515 15.4765C15.9886 14.4677 18.5909 11.5838 18.5909 8.19042C18.5909 3.94339 14.5205 0.5 9.5 0.5Z" fill="white"/>
</svg>
