<svg width="15" height="16" viewBox="0 0 15 16" fill="none" xmlns="http://www.w3.org/2000/svg">
<path d="M15 2.24416C14.4831 2.6636 13.8761 2.88631 13.2558 2.88421C13.919 2.40632 14.4156 1.64707 14.6512 0.750723C14.1014 1.3192 13.4087 1.63932 12.689 1.65745C12.2144 1.06298 11.5951 0.672772 10.9239 0.5454C10.2527 0.418029 9.5658 0.560359 8.96634 0.951032C8.36687 1.34171 7.88715 1.95965 7.59918 2.71213C7.3112 3.4646 7.2305 4.31102 7.36919 5.12436C6.14797 5.0455 4.95396 4.65335 3.86469 3.97337C2.77542 3.29339 1.81525 2.34079 1.04651 1.17742C0.670338 2.01003 0.560197 2.98379 0.737426 3.91006C0.914655 4.83633 1.36664 5.64917 2.00581 6.19111C1.52342 6.19944 1.04595 6.07168 0.610465 5.81775C0.622193 6.67692 0.869155 7.50645 1.31185 8.17365C1.75454 8.84086 2.36737 9.30717 3.05233 9.498C2.59638 9.64365 2.11947 9.66188 1.65698 9.55134C1.85649 10.3125 2.24519 10.9785 2.76889 11.4565C3.29259 11.9346 3.92519 12.2009 4.57849 12.2182C3.19872 13.242 1.61377 13.7775 0 13.765C1.35154 14.8443 2.92143 15.4436 4.53492 15.4962C6.14841 15.5488 7.74219 15.0527 9.13884 14.0631C10.5355 13.0734 11.6802 11.6291 12.4456 9.89086C13.2109 8.15262 13.5669 6.18867 13.4738 4.21763C14.0492 3.64205 14.5621 2.97885 15 2.24416Z" fill="white"/>
</svg>
