<svg width="23" height="16" viewBox="0 0 23 16" fill="none" xmlns="http://www.w3.org/2000/svg">
<path d="M22.5243 5.78647C22.5739 4.3985 22.2602 3.02092 21.6125 1.78163C21.173 1.27312 20.5631 0.929956 19.889 0.811935C17.1008 0.567111 14.3011 0.466766 11.5019 0.511329C8.71284 0.464743 5.92322 0.561851 3.14485 0.802238C2.59555 0.898933 2.08722 1.14827 1.68187 1.51981C0.780035 2.32466 0.679831 3.70163 0.579627 4.86526C0.434243 6.95744 0.434243 9.05671 0.579627 11.1489C0.608616 11.8038 0.709385 12.4539 0.880239 13.0883C1.00106 13.578 1.24551 14.0312 1.59169 14.4071C1.99979 14.7983 2.51996 15.0618 3.08473 15.1634C5.24505 15.4215 7.42178 15.5284 9.598 15.4834C13.1051 15.5319 16.1814 15.4834 19.8188 15.2119C20.3975 15.1165 20.9323 14.8527 21.3519 14.4555C21.6325 14.1839 21.842 13.8515 21.9632 13.4858C22.3215 12.4217 22.4976 11.308 22.4842 10.1889C22.5243 9.64586 22.5243 6.36829 22.5243 5.78647ZM9.23726 10.7707V4.76829L15.1693 7.78404C13.506 8.67616 11.3115 9.68465 9.23726 10.7707Z" fill="white"/>
</svg>
